<svg width="224" height="47" viewBox="0 0 224 47" fill="none" xmlns="http://www.w3.org/2000/svg">
<path d="M7.34822 29.9863C7.31697 30.6973 6.45369 31.1309 4.75838 31.2871C4.69588 31.4121 4.69588 31.5957 4.75838 31.8379C6.23494 31.791 7.28181 31.7676 7.899 31.7676C8.87556 31.7676 9.98885 31.791 11.2388 31.8379C11.3013 31.5957 11.3013 31.4121 11.2388 31.2871C9.52791 31.1309 8.66463 30.6973 8.649 29.9863C8.57088 27.5566 8.53181 25.4395 8.53181 23.6348C8.53181 21.166 8.56306 18.9824 8.62556 17.084H8.74275L14.4615 31.4746H14.5787L19.9224 17.3652H20.0279C20.106 19.7168 20.1451 21.8066 20.1451 23.6348C20.1451 26.1738 20.106 28.3418 20.0279 30.1387C20.0123 30.3418 19.9185 30.5176 19.7467 30.666C19.5826 30.8066 19.3365 30.9199 19.0084 31.0059C18.6803 31.084 18.4029 31.1387 18.1763 31.1699C17.9498 31.2012 17.6607 31.2324 17.3092 31.2637C17.2467 31.3887 17.2467 31.5723 17.3092 31.8145C18.6373 31.7676 19.9967 31.7441 21.3873 31.7441C23.0513 31.7441 24.6529 31.7676 26.192 31.8145C26.2545 31.6738 26.2545 31.4902 26.192 31.2637C23.5982 31.1074 22.2935 30.7402 22.2779 30.1621C22.1842 27.709 22.1373 25.2441 22.1373 22.7676C22.1373 20.3691 22.1685 18.1855 22.231 16.2168C22.2467 15.6387 23.5513 15.2715 26.1451 15.1152C26.2076 14.8887 26.2076 14.7051 26.1451 14.5645C24.606 14.6113 22.5592 14.6348 20.0045 14.6348L15.0123 27.666L10.2076 14.6348C8.30135 14.6348 6.61385 14.6035 5.1451 14.541C5.06697 14.6973 5.06697 14.8457 5.1451 14.9863C6.07478 15.1191 6.68025 15.3145 6.9615 15.5723C7.25056 15.8223 7.40291 16.4043 7.41853 17.3184C7.47322 19.2402 7.50056 21.0566 7.50056 22.7676C7.50056 25.1348 7.44978 27.541 7.34822 29.9863ZM6.86775 29.9863C6.96931 27.5254 7.0201 25.1191 7.0201 22.7676C7.0201 21.0566 6.99275 19.2402 6.93806 17.3184C6.92244 16.5996 6.78181 16.1387 6.51619 15.9355C6.25838 15.7246 5.69588 15.5605 4.82869 15.4434C4.60994 14.9668 4.61775 14.498 4.85213 14.0371C6.649 14.1152 8.98494 14.1543 11.8599 14.1543L15.7037 24.4199L19.6646 14.1543C21.7584 14.1543 24.0709 14.123 26.6021 14.0605C26.7584 14.5684 26.774 15.0723 26.649 15.5723C24.9224 15.7441 24.0513 15.9746 24.0357 16.2637C23.9654 17.7324 23.9303 19.9004 23.9303 22.7676C23.9303 25.7285 23.981 28.1777 24.0826 30.1152C24.0982 30.4043 24.9693 30.6348 26.6959 30.8066C26.8209 31.3066 26.8053 31.8105 26.649 32.3184C24.1178 32.2559 22.6451 32.2246 22.231 32.2246C21.606 32.2246 19.856 32.2559 16.981 32.3184C16.7857 31.7715 16.7857 31.2676 16.981 30.8066C18.6763 30.6348 19.5318 30.4121 19.5474 30.1387C19.6256 28.3105 19.6646 26.1426 19.6646 23.6348C19.6646 21.6816 19.6568 20.248 19.6412 19.334L14.9068 31.9551H14.1217L9.01228 19.0762V23.6348C9.01228 25.4395 9.05135 27.5566 9.12947 29.9863C9.1451 30.4082 10.0006 30.6895 11.6959 30.8301C11.8912 31.2988 11.8912 31.8027 11.6959 32.3418C9.35994 32.248 6.93416 32.248 4.41853 32.3418C4.23103 31.8027 4.23103 31.2988 4.41853 30.8301C6.03572 30.6738 6.85213 30.3926 6.86775 29.9863ZM47.0513 31.2871C46.6138 31.2637 46.1881 31.2324 45.774 31.1934C45.3678 31.1465 44.9967 31.084 44.6607 31.0059C44.3248 30.9277 44.0396 30.8262 43.8053 30.7012C43.5787 30.5684 43.4303 30.4043 43.3599 30.209L36.8795 14.2012C36.7467 14.209 36.6178 14.2637 36.4928 14.3652C36.4381 15.334 36.1412 16.1113 35.6021 16.6973L35.8717 17.3887L30.9263 29.8223C30.6138 30.6035 29.6529 31.0918 28.0435 31.2871C27.9967 31.3965 27.9732 31.4941 27.9732 31.5801C27.9732 31.6738 27.9967 31.7676 28.0435 31.8613C28.9342 31.8301 29.649 31.8066 30.1881 31.791C30.7349 31.7754 31.1099 31.7676 31.3131 31.7676C31.4928 31.7676 31.899 31.7754 32.5318 31.791C33.1724 31.8066 34.0396 31.8301 35.1334 31.8613C35.1803 31.7676 35.2037 31.6738 35.2037 31.5801C35.2037 31.4941 35.1803 31.3965 35.1334 31.2871C34.4849 31.2246 33.9576 31.1582 33.5513 31.0879C33.1451 31.0098 32.8287 30.9277 32.6021 30.8418C32.3756 30.7559 32.2232 30.6621 32.1451 30.5605C32.067 30.4512 32.0279 30.3301 32.0279 30.1973C32.0279 30.1113 32.0435 30.0254 32.0748 29.9395L33.7857 25.6504C34.6529 25.6348 35.3521 25.623 35.8834 25.6152C36.4224 25.6074 36.7935 25.6035 36.9967 25.6035C37.442 25.6035 37.8365 25.6074 38.1803 25.6152C38.5318 25.6152 38.8326 25.6191 39.0826 25.627L40.7818 29.9395C40.8209 30.0566 40.8404 30.1465 40.8404 30.209C40.8404 30.4199 40.731 30.6074 40.5123 30.7715C40.3013 30.9355 40.0396 31.0488 39.7271 31.1113L38.4615 31.2871C38.4146 31.3965 38.3912 31.4941 38.3912 31.5801C38.3912 31.6738 38.4146 31.7676 38.4615 31.8613C39.1256 31.8379 39.7974 31.8184 40.4771 31.8027C41.1646 31.7871 41.8678 31.7793 42.5865 31.7793C43.3053 31.7793 44.0318 31.7871 44.7662 31.8027C45.5084 31.8184 46.2701 31.8379 47.0513 31.8613C47.106 31.752 47.1334 31.6582 47.1334 31.5801C47.1334 31.5332 47.1256 31.4863 47.1099 31.4395C47.0943 31.3926 47.0748 31.3418 47.0513 31.2871ZM36.9967 24.6895C35.8638 24.6895 34.9303 24.6738 34.1959 24.6426L36.4224 18.9004H36.4693L38.7076 24.666C38.2857 24.6816 37.7154 24.6895 36.9967 24.6895ZM36.4459 20.1309L34.8873 24.1855C35.8326 24.2324 36.8717 24.2402 38.0045 24.209L36.4459 20.1309ZM47.4146 30.8535C47.6099 31.3223 47.6021 31.8184 47.3912 32.3418H38.0982C37.9107 31.8027 37.9107 31.3066 38.0982 30.8535C38.9498 30.8066 39.5513 30.7207 39.9029 30.5957C40.2545 30.4629 40.3756 30.252 40.2662 29.9629L38.731 26.084C37.2857 26.0293 35.7388 26.0449 34.0904 26.1309L32.5787 30.0098C32.5318 30.1426 32.567 30.2637 32.6842 30.373C32.8092 30.4746 33.0084 30.5566 33.2818 30.6191C33.5553 30.6816 33.8756 30.7324 34.2428 30.7715C34.6099 30.8105 35.024 30.8379 35.4849 30.8535C35.6803 31.3223 35.6724 31.8184 35.4615 32.3418C32.899 32.248 30.317 32.248 27.7154 32.3418C27.5045 31.8184 27.4967 31.3223 27.692 30.8535C29.3013 30.666 30.2115 30.3145 30.4224 29.7988L35.3678 17.3652C35.3365 17.3027 35.274 17.1621 35.1803 16.9434C35.0943 16.7168 35.0435 16.5684 35.0279 16.498C35.6373 15.8809 35.9732 15.084 36.0357 14.1074C36.7232 13.7715 37.5318 13.5801 38.4615 13.5332L45.0357 29.8457C45.1842 30.2129 45.4185 30.459 45.7388 30.584C46.0592 30.7012 46.6178 30.791 47.4146 30.8535ZM54.0709 15.3496H54.0943C54.5787 15.3184 55.2037 15.3027 55.9693 15.3027C57.1568 15.3027 58.0631 15.6699 58.6881 16.4043C59.3209 17.1387 59.6373 18.0918 59.6373 19.2637C59.6373 20.4512 59.3482 21.4824 58.7701 22.3574C58.1998 23.2246 57.3053 23.6582 56.0865 23.6582C55.3678 23.6582 54.6568 23.5684 53.9537 23.3887C53.9537 20.6387 53.9928 17.959 54.0709 15.3496ZM59.1568 19.2637C59.1568 18.2559 58.8521 17.4082 58.2428 16.7207C57.6412 16.0332 56.8443 15.7285 55.8521 15.8066C55.7896 18.8145 55.7584 21.2246 55.7584 23.0371C55.9146 23.084 56.1529 23.123 56.4732 23.1543C57.3873 23.0527 58.0631 22.623 58.5006 21.8652C58.9381 21.1074 59.1568 20.2402 59.1568 19.2637ZM51.8209 30.1621C51.8053 30.7402 50.899 31.1152 49.1021 31.2871C49.0396 31.4121 49.0396 31.5957 49.1021 31.8379C50.4303 31.791 51.7935 31.7676 53.192 31.7676C54.856 31.7676 56.4537 31.791 57.9849 31.8379C58.0474 31.7129 58.0474 31.5293 57.9849 31.2871C55.3912 31.1309 54.0865 30.7559 54.0709 30.1621C53.9928 27.9668 53.9537 26.0059 53.9537 24.2793C54.8365 24.459 55.6529 24.5488 56.4029 24.5488C57.6842 26.9316 59.3717 29.3379 61.4654 31.7676C61.8638 31.7676 62.4381 31.7715 63.1881 31.7793C63.9459 31.7871 64.6256 31.7949 65.2271 31.8027C65.8365 31.8105 66.4146 31.8223 66.9615 31.8379C67.024 31.6973 67.024 31.5137 66.9615 31.2871C65.6803 31.1934 64.5982 30.8809 63.7154 30.3496C62.8404 29.8105 61.817 28.8184 60.6451 27.373C59.8482 26.3652 59.1295 25.3027 58.4888 24.1855C59.6451 23.8027 60.5553 23.166 61.2193 22.2754C61.8834 21.3848 62.2154 20.3809 62.2154 19.2637C62.2154 17.8574 61.7623 16.7207 60.856 15.8535C59.9498 14.9785 58.6959 14.541 57.0943 14.541C51.8131 14.6035 49.1568 14.6035 49.1256 14.541C49.0787 14.7285 49.0787 14.9121 49.1256 15.0918C50.9224 15.2637 51.8287 15.6387 51.8443 16.2168C51.9224 18.0527 51.9615 20.2363 51.9615 22.7676C51.9615 25.2441 51.9146 27.709 51.8209 30.1621ZM51.3404 30.1387C51.4342 28.1855 51.481 25.7285 51.481 22.7676C51.481 20.252 51.442 18.0762 51.3638 16.2402C51.3482 15.9512 50.4771 15.7207 48.7506 15.5488C48.6178 15.0332 48.6334 14.5293 48.7974 14.0371C49.6568 14.084 50.5904 14.1074 51.5982 14.1074C52.606 14.1074 53.7623 14.0996 55.067 14.084C56.3717 14.0684 57.3287 14.0605 57.9381 14.0605C59.8287 14.0605 61.3131 14.541 62.3912 15.502C63.4693 16.4551 64.0084 17.709 64.0084 19.2637C64.0084 20.3652 63.692 21.3809 63.0592 22.3105C62.4263 23.2402 61.5748 23.9434 60.5045 24.4199C61.0357 25.2871 61.6529 26.1777 62.356 27.0918C63.1842 28.1934 63.9967 29.0684 64.7935 29.7168C65.5982 30.3652 66.4888 30.7363 67.4654 30.8301C67.5904 31.3301 67.5748 31.834 67.4185 32.3418C66.3013 32.3105 64.2467 32.2793 61.2545 32.248C59.0592 29.6855 57.3443 27.2793 56.1099 25.0293H55.7584C55.7584 26.4824 55.7974 28.1855 55.8756 30.1387C55.8756 30.1855 55.8951 30.2324 55.9342 30.2793C55.9732 30.3262 56.1256 30.4004 56.3912 30.502C56.6568 30.6035 57.0592 30.6934 57.5982 30.7715C58.1451 30.8418 58.4498 30.8848 58.5123 30.9004C58.6451 31.3379 58.6217 31.8184 58.442 32.3418C55.5592 32.2793 53.8092 32.248 53.192 32.248C52.7701 32.248 51.2974 32.2793 48.774 32.3418C48.5787 31.8027 48.5787 31.2988 48.774 30.8301C50.4693 30.6582 51.3248 30.4277 51.3404 30.1387ZM78.6685 30.1152C78.6842 30.4043 79.5553 30.6348 81.2818 30.8066C81.3912 31.2676 81.3756 31.7637 81.2349 32.2949C79.0865 32.2637 77.4693 32.248 76.3834 32.248C75.3131 32.248 73.7037 32.2637 71.5553 32.2949C71.3053 31.834 71.3053 31.3379 71.5553 30.8066C73.2584 30.6348 74.1178 30.4121 74.1334 30.1387C74.2115 27.9746 74.2584 26.0371 74.274 24.3262L69.9029 16.7207C69.5201 16.0801 68.6178 15.6895 67.1959 15.5488C67.1334 15.3066 67.1021 15.0723 67.1021 14.8457C67.1021 14.6035 67.149 14.3418 67.2428 14.0605C68.8912 14.123 70.8326 14.1543 73.067 14.1543C74.6842 14.1543 75.8795 14.1387 76.6529 14.1074C76.731 14.373 76.7701 14.6035 76.7701 14.7988C76.7701 15.0254 76.731 15.2832 76.6529 15.5723C75.817 15.6348 75.2388 15.7051 74.9185 15.7832C74.5982 15.8613 74.4381 15.9824 74.4381 16.1465C74.4381 16.1934 75.3912 17.9277 77.2974 21.3496C79.4224 17.8184 80.4849 16.0332 80.4849 15.9941C80.4849 15.916 80.4381 15.8457 80.3443 15.7832C80.2506 15.7207 80.1217 15.6699 79.9576 15.6309C79.8013 15.5918 79.6529 15.5645 79.5123 15.5488C79.3795 15.5332 79.2232 15.5176 79.0435 15.502C78.8717 15.4785 78.7701 15.4668 78.7388 15.4668C78.606 15.0527 78.6295 14.584 78.8092 14.0605C80.2467 14.123 81.317 14.1543 82.0201 14.1543C82.6763 14.1543 83.6295 14.123 84.8795 14.0605C85.0592 14.5996 85.0592 15.0957 84.8795 15.5488C83.6763 15.6582 82.8834 16.0176 82.5006 16.627L78.5396 22.9785C78.5396 26.1504 78.5826 28.5293 78.6685 30.1152ZM74.6138 30.1621C74.5904 30.7402 73.6842 31.1152 71.8951 31.2871C71.817 31.4824 71.817 31.6738 71.8951 31.8613C75.3482 31.7988 78.3092 31.791 80.7779 31.8379C80.8404 31.6816 80.8404 31.4902 80.7779 31.2637C78.1842 31.1074 76.8795 30.7402 76.8638 30.1621C76.7857 27.9199 76.7467 26.1816 76.7467 24.9473L82.1021 16.3809C82.5631 15.6309 83.3756 15.2012 84.5396 15.0918C84.6099 14.959 84.6099 14.7754 84.5396 14.541C83.6646 14.5879 82.7779 14.6113 81.8795 14.6113C81.067 14.6113 80.1568 14.5879 79.149 14.541C79.0787 14.666 79.0787 14.8496 79.149 15.0918C80.2974 15.2168 80.9107 15.4707 80.9888 15.8535C81.0201 16.002 80.9732 16.1777 80.8482 16.3809L76.606 23.3887L72.7623 16.5332C72.4888 16.0176 72.5709 15.6777 73.0084 15.5137C73.4537 15.3418 74.5162 15.2012 76.1959 15.0918C76.2584 14.8652 76.2584 14.6816 76.1959 14.541C73.8912 14.6504 71.0162 14.6504 67.5709 14.541C67.5084 14.6816 67.5084 14.8652 67.5709 15.0918C68.9537 15.2168 69.8756 15.6973 70.3365 16.5332L74.7545 24.2324C74.7388 26.0684 74.692 28.0449 74.6138 30.1621Z" fill="black"/>
<path d="M117.203 38.7974C115.539 40.8352 110.748 44.662 104.193 46.5431C104.193 46.5431 105.856 42.0755 110.549 39.071C106.222 39.8025 99.7001 39.698 90.7817 36.589C90.7817 36.589 99.0013 32.9052 108.352 33.898C103.061 31.3638 96.4389 26.3476 91.3475 15.9755C91.3475 15.9755 106.322 19.189 113.776 29.1169C107.021 16.3151 117.404 0.0124512 117.404 0.0124512C125.49 14.3034 123.76 23.7872 121.131 29.0124C128.618 19.1629 143.46 15.9755 143.46 15.9755C138.368 26.3476 131.746 31.3638 126.455 33.898C135.806 32.9052 144.026 36.589 144.026 36.589C135.107 39.698 128.585 39.8025 124.259 39.071C128.951 42.0755 130.615 46.5431 130.615 46.5431C124.059 44.662 118.867 40.8352 117.203 38.7974Z" fill="#4B1195"/>
<path d="M155.866 23.2776C155.866 21.3557 155.905 19.1721 155.983 16.7268C155.999 16.1331 157.303 15.7581 159.897 15.6018C159.944 15.4534 159.944 15.2698 159.897 15.051C157.85 15.1135 156.252 15.1448 155.104 15.1448C154.143 15.1448 152.784 15.1135 151.026 15.051C150.956 15.1917 150.956 15.3752 151.026 15.6018C152.815 15.7737 153.717 16.1487 153.733 16.7268C153.811 18.5627 153.85 20.7463 153.85 23.2776V31.6331C153.85 33.9065 153.686 35.4963 153.358 36.4026C153.03 37.3167 152.346 37.7737 151.307 37.7737C150.557 37.7737 149.979 37.5706 149.573 37.1643C149.174 36.7581 148.975 36.2893 148.975 35.7581C148.975 35.344 149.081 35.0159 149.292 34.7737C149.502 34.5315 149.752 34.4104 150.042 34.4104C150.307 34.4104 150.538 34.5081 150.733 34.7034C150.928 34.6565 151.057 34.5198 151.12 34.2932C150.831 33.8792 150.405 33.6721 149.842 33.6721C149.28 33.6721 148.827 33.8518 148.483 34.2112C148.139 34.5706 147.967 35.0706 147.967 35.7112C147.967 36.4612 148.26 37.1135 148.846 37.6682C149.432 38.2307 150.252 38.512 151.307 38.512C151.737 38.512 152.127 38.4651 152.479 38.3713C152.831 38.2776 153.151 38.1213 153.44 37.9026C153.729 37.6917 153.983 37.4534 154.202 37.1877C154.42 36.9221 154.612 36.5588 154.776 36.0979C154.948 35.6448 155.092 35.1995 155.209 34.762C155.327 34.3245 155.424 33.762 155.502 33.0745C155.588 32.387 155.655 31.7346 155.702 31.1174C155.749 30.5002 155.784 29.7268 155.807 28.7971C155.831 27.8674 155.846 27.0081 155.854 26.219C155.862 25.4299 155.866 24.4495 155.866 23.2776ZM151.6 38.9924C150.256 38.9924 149.241 38.6721 148.553 38.0315C147.858 37.3987 147.502 36.6252 147.487 35.7112C147.471 34.9065 147.702 34.2815 148.178 33.8362C148.647 33.3909 149.194 33.1682 149.819 33.1682C150.413 33.1682 150.924 33.3674 151.354 33.7659C151.784 34.1643 151.999 34.7151 151.999 35.4182C151.999 35.7229 151.952 35.9768 151.858 36.1799C151.764 36.3909 151.659 36.5549 151.542 36.6721C151.432 36.7971 151.37 36.8831 151.354 36.9299C151.417 37.0784 151.553 37.1838 151.764 37.2463C152.42 37.1057 152.85 36.6096 153.053 35.7581C153.264 34.9065 153.37 33.5315 153.37 31.6331V23.2776C153.37 20.762 153.331 18.5862 153.252 16.7502C153.237 16.4612 152.366 16.2307 150.639 16.0588C150.506 15.5432 150.522 15.0393 150.686 14.5471C152.061 14.6252 153.811 14.6643 155.936 14.6643C156.256 14.6643 156.897 14.6565 157.858 14.6409C158.819 14.6252 159.659 14.6174 160.377 14.6174C160.526 15.0627 160.534 15.5432 160.401 16.0588C158.674 16.2307 157.803 16.4612 157.788 16.7502C157.694 18.7034 157.647 21.1682 157.647 24.1448C157.647 25.4104 157.631 26.5315 157.6 27.5081C157.569 28.4768 157.499 29.5002 157.389 30.5784C157.288 31.6487 157.147 32.5745 156.967 33.3557C156.795 34.1448 156.557 34.9104 156.252 35.6526C155.948 36.3948 155.584 36.9963 155.163 37.4573C154.741 37.926 154.229 38.2971 153.627 38.5706C153.026 38.8518 152.35 38.9924 151.6 38.9924ZM180.897 31.7971C180.459 31.7737 180.034 31.7424 179.62 31.7034C179.213 31.6565 178.842 31.594 178.506 31.5159C178.17 31.4377 177.885 31.3362 177.651 31.2112C177.424 31.0784 177.276 30.9143 177.206 30.719L170.725 14.7112C170.592 14.719 170.463 14.7737 170.338 14.8752C170.284 15.844 169.987 16.6213 169.448 17.2073L169.717 17.8987L164.772 30.3323C164.459 31.1135 163.499 31.6018 161.889 31.7971C161.842 31.9065 161.819 32.0042 161.819 32.0901C161.819 32.1838 161.842 32.2776 161.889 32.3713C162.78 32.3401 163.495 32.3167 164.034 32.301C164.581 32.2854 164.956 32.2776 165.159 32.2776C165.338 32.2776 165.745 32.2854 166.377 32.301C167.018 32.3167 167.885 32.3401 168.979 32.3713C169.026 32.2776 169.049 32.1838 169.049 32.0901C169.049 32.0042 169.026 31.9065 168.979 31.7971C168.331 31.7346 167.803 31.6682 167.397 31.5979C166.991 31.5198 166.674 31.4377 166.448 31.3518C166.221 31.2659 166.069 31.1721 165.991 31.0706C165.913 30.9612 165.874 30.8401 165.874 30.7073C165.874 30.6213 165.889 30.5354 165.92 30.4495L167.631 26.1604C168.499 26.1448 169.198 26.1331 169.729 26.1252C170.268 26.1174 170.639 26.1135 170.842 26.1135C171.288 26.1135 171.682 26.1174 172.026 26.1252C172.377 26.1252 172.678 26.1292 172.928 26.137L174.627 30.4495C174.667 30.5667 174.686 30.6565 174.686 30.719C174.686 30.9299 174.577 31.1174 174.358 31.2815C174.147 31.4456 173.885 31.5588 173.573 31.6213L172.307 31.7971C172.26 31.9065 172.237 32.0042 172.237 32.0901C172.237 32.1838 172.26 32.2776 172.307 32.3713C172.971 32.3479 173.643 32.3284 174.323 32.3127C175.01 32.2971 175.713 32.2893 176.432 32.2893C177.151 32.2893 177.877 32.2971 178.612 32.3127C179.354 32.3284 180.116 32.3479 180.897 32.3713C180.952 32.262 180.979 32.1682 180.979 32.0901C180.979 32.0432 180.971 31.9963 180.956 31.9495C180.94 31.9026 180.92 31.8518 180.897 31.7971ZM170.842 25.1995C169.709 25.1995 168.776 25.1838 168.042 25.1526L170.268 19.4104H170.315L172.553 25.176C172.131 25.1917 171.561 25.1995 170.842 25.1995ZM170.292 20.6409L168.733 24.6956C169.678 24.7424 170.717 24.7502 171.85 24.719L170.292 20.6409ZM181.26 31.3635C181.456 31.8323 181.448 32.3284 181.237 32.8518H171.944C171.756 32.3127 171.756 31.8167 171.944 31.3635C172.795 31.3167 173.397 31.2307 173.749 31.1057C174.1 30.9729 174.221 30.762 174.112 30.4729L172.577 26.594C171.131 26.5393 169.584 26.5549 167.936 26.6409L166.424 30.5198C166.377 30.6526 166.413 30.7737 166.53 30.8831C166.655 30.9846 166.854 31.0667 167.127 31.1292C167.401 31.1917 167.721 31.2424 168.088 31.2815C168.456 31.3206 168.87 31.3479 169.331 31.3635C169.526 31.8323 169.518 32.3284 169.307 32.8518C166.745 32.7581 164.163 32.7581 161.561 32.8518C161.35 32.3284 161.342 31.8323 161.538 31.3635C163.147 31.176 164.057 30.8245 164.268 30.3088L169.213 17.8752C169.182 17.8127 169.12 17.6721 169.026 17.4534C168.94 17.2268 168.889 17.0784 168.874 17.0081C169.483 16.3909 169.819 15.594 169.881 14.6174C170.569 14.2815 171.377 14.0901 172.307 14.0432L178.881 30.3557C179.03 30.7229 179.264 30.969 179.584 31.094C179.905 31.2112 180.463 31.301 181.26 31.3635ZM196.893 24.7893V23.2542C196.893 21.4495 196.854 19.3284 196.776 16.8909C196.76 16.4768 195.905 16.1995 194.209 16.0588C194.1 15.7854 194.045 15.5354 194.045 15.3088C194.045 15.1682 194.1 14.9299 194.209 14.594C195.397 14.6409 196.588 14.6643 197.784 14.6643C198.987 14.6643 200.221 14.6409 201.487 14.594C201.596 14.9299 201.651 15.1682 201.651 15.3088C201.651 15.5354 201.596 15.7854 201.487 16.0588C199.87 16.2151 199.053 16.4924 199.038 16.8909C198.936 18.5393 198.885 20.9495 198.885 24.1213C198.885 27.6995 198.936 30.594 199.038 32.8049L198.077 32.8284L186.956 19.2229C186.956 19.3635 186.952 19.6213 186.944 19.9963C186.936 20.3635 186.932 20.6487 186.932 20.8518C186.932 24.6252 186.983 27.8401 187.084 30.4963C187.1 30.9182 187.956 31.1995 189.651 31.3401C189.76 31.6135 189.815 31.8635 189.815 32.0901C189.815 32.262 189.76 32.5159 189.651 32.8518C188.448 32.8049 187.256 32.7815 186.077 32.7815C184.874 32.7815 183.639 32.8049 182.374 32.8518C182.264 32.5159 182.209 32.262 182.209 32.0901C182.209 31.8635 182.264 31.6135 182.374 31.3401C183.991 31.1838 184.807 30.9026 184.823 30.4963C184.917 28.8557 184.963 26.4495 184.963 23.2776C184.963 20.8479 184.932 18.6799 184.87 16.7737C184.362 16.3752 183.588 16.137 182.549 16.0588C182.432 15.8479 182.374 15.6057 182.374 15.3323C182.374 15.0432 182.448 14.7815 182.596 14.5471C184.229 14.6252 186.292 14.6643 188.784 14.6643L196.893 24.7893ZM198.405 24.1213C198.405 21.7542 198.456 19.344 198.557 16.8909C198.588 16.1877 199.452 15.7581 201.147 15.6018C201.209 15.469 201.209 15.2854 201.147 15.051C199.67 15.0979 198.624 15.1213 198.006 15.1213C197.03 15.1213 195.917 15.0979 194.667 15.051C194.604 15.2854 194.604 15.469 194.667 15.6018C196.377 15.7581 197.241 16.1877 197.256 16.8909C197.334 19.3284 197.374 21.4495 197.374 23.2542C197.374 24.3088 197.358 25.7307 197.327 27.5198L187.225 15.1448C185.467 15.1448 184.01 15.1135 182.854 15.051C182.792 15.2385 182.792 15.4221 182.854 15.6018C183.862 15.6643 184.694 15.9846 185.35 16.5627C185.413 18.4612 185.444 20.6995 185.444 23.2776C185.444 25.6448 185.397 28.051 185.303 30.4963C185.272 31.2073 184.409 31.6409 182.713 31.7971C182.651 31.9221 182.651 32.1057 182.713 32.3479C184.182 32.301 185.229 32.2776 185.854 32.2776C186.831 32.2776 187.944 32.301 189.194 32.3479C189.256 32.1057 189.256 31.9221 189.194 31.7971C187.483 31.6409 186.62 31.2073 186.604 30.4963C186.526 28.0667 186.487 25.9495 186.487 24.1448C186.487 22.0823 186.51 20.0393 186.557 18.0159H186.674L198.311 32.3479L198.534 32.3245C198.448 30.4885 198.405 27.7542 198.405 24.1213ZM214.143 15.1448H208.249C207.272 15.1448 205.901 15.1135 204.135 15.051V15.6018C205.932 15.7737 206.838 16.1487 206.854 16.7268C206.932 18.5627 206.971 20.7463 206.971 23.2776C206.971 25.7542 206.924 28.219 206.831 30.6721C206.815 31.2502 205.909 31.6252 204.112 31.7971C204.081 32.0706 204.081 32.2542 204.112 32.3479C205.62 32.301 209.124 32.2776 214.624 32.2776C216.545 32.2776 217.991 31.9495 218.959 31.2932C219.928 30.637 220.803 29.5081 221.584 27.9065C221.522 27.7815 221.385 27.6799 221.174 27.6018C219.752 30.2424 217.131 31.5627 213.311 31.5627H209.081C209.002 28.1487 208.963 25.6526 208.963 24.0745L212.784 24.051C213.12 24.051 213.432 24.1057 213.721 24.2151C214.018 24.3245 214.252 24.4377 214.424 24.5549C214.604 24.6643 214.811 24.8792 215.045 25.1995C215.28 25.5198 215.444 25.7542 215.538 25.9026C215.631 26.0432 215.795 26.3401 216.03 26.7932C216.264 27.2463 216.42 27.5393 216.499 27.6721C216.741 27.5706 216.893 27.4651 216.956 27.3557C216.174 26.0276 215.784 24.8049 215.784 23.6877C215.784 23.2034 215.893 22.6135 216.112 21.9182C216.338 21.2229 216.62 20.5862 216.956 20.0081C216.893 19.8987 216.741 19.7971 216.499 19.7034C216.436 19.8127 216.311 20.0471 216.124 20.4065C215.944 20.7659 215.823 21.0002 215.76 21.1096C215.706 21.2112 215.592 21.4026 215.42 21.6838C215.256 21.9651 215.127 22.1526 215.034 22.2463C214.94 22.3401 214.799 22.4807 214.612 22.6682C214.432 22.8479 214.256 22.9729 214.084 23.0432C213.92 23.1057 213.725 23.1643 213.499 23.219C213.272 23.2737 213.034 23.301 212.784 23.301C211.104 23.301 209.831 23.2854 208.963 23.2542C208.963 21.3635 209.01 18.8987 209.104 15.8596H212.831C216.651 15.8596 219.272 17.1799 220.694 19.8206C220.905 19.7424 221.042 19.637 221.104 19.5042C220.323 17.9104 219.448 16.7854 218.479 16.1292C217.51 15.4729 216.065 15.1448 214.143 15.1448ZM215.76 20.0901L216.264 19.1057C216.92 19.3401 217.334 19.6409 217.506 20.0081C217.155 20.6174 216.858 21.2776 216.616 21.9885C216.381 22.6917 216.264 23.2581 216.264 23.6877C216.264 24.7268 216.678 25.9495 217.506 27.3557C217.319 27.7542 216.92 28.0588 216.311 28.2698C216.022 27.7932 215.811 27.426 215.678 27.1682C215.358 26.637 215.104 26.2424 214.917 25.9846C214.737 25.719 214.463 25.4534 214.096 25.1877C213.729 24.9221 213.323 24.7815 212.877 24.7659H210.768C210.768 26.4924 210.799 28.5979 210.862 31.0823H213.288C215.272 31.0823 216.885 30.6956 218.127 29.9221C219.377 29.1409 220.323 28.1643 220.963 26.9924C221.62 27.2346 222.034 27.5393 222.206 27.9065C221.182 29.6018 220.577 31.219 220.389 32.7581H210.663C207.577 32.7581 205.284 32.7815 203.784 32.8284C203.62 32.3206 203.612 31.8245 203.76 31.3401C205.471 31.1682 206.334 30.9377 206.35 30.6487C206.444 28.1956 206.491 25.7385 206.491 23.2776C206.491 20.762 206.452 18.5862 206.374 16.7502C206.358 16.4612 205.487 16.2307 203.76 16.0588C203.612 15.512 203.627 15.0081 203.807 14.5471C206.206 14.6252 207.795 14.6643 208.577 14.6643H219.909C220.096 16.1956 220.706 17.8088 221.737 19.5042C221.557 19.8792 221.139 20.1838 220.483 20.4182C219.842 19.2542 218.897 18.2854 217.647 17.512C216.405 16.7307 214.792 16.3401 212.807 16.3401H210.885C210.807 19.1448 210.768 21.2971 210.768 22.7971C211.26 22.8127 211.971 22.8206 212.901 22.8206C213.557 22.8206 214.081 22.6018 214.471 22.1643C214.862 21.719 215.292 21.0276 215.76 20.0901Z" fill="black"/>
</svg>
