<svg width="219" height="47" viewBox="0 0 219 47" fill="none" xmlns="http://www.w3.org/2000/svg">
<path d="M3.34814 29.9739C3.31689 30.6848 2.45361 31.1184 0.758301 31.2746C0.695801 31.3996 0.695801 31.5832 0.758301 31.8254C2.23486 31.7785 3.28174 31.7551 3.89893 31.7551C4.87549 31.7551 5.98877 31.7785 7.23877 31.8254C7.30127 31.5832 7.30127 31.3996 7.23877 31.2746C5.52783 31.1184 4.66455 30.6848 4.64893 29.9739C4.5708 27.5442 4.53174 25.427 4.53174 23.6223C4.53174 21.1535 4.56299 18.9699 4.62549 17.0715H4.74268L10.4614 31.4621H10.5786L15.9224 17.3528H16.0278C16.106 19.7043 16.145 21.7942 16.145 23.6223C16.145 26.1614 16.106 28.3293 16.0278 30.1262C16.0122 30.3293 15.9185 30.5051 15.7466 30.6535C15.5825 30.7942 15.3364 30.9074 15.0083 30.9934C14.6802 31.0715 14.4028 31.1262 14.1763 31.1574C13.9497 31.1887 13.6606 31.2199 13.3091 31.2512C13.2466 31.3762 13.2466 31.5598 13.3091 31.802C14.6372 31.7551 15.9966 31.7317 17.3872 31.7317C19.0513 31.7317 20.6528 31.7551 22.1919 31.802C22.2544 31.6614 22.2544 31.4778 22.1919 31.2512C19.5981 31.0949 18.2935 30.7278 18.2778 30.1496C18.1841 27.6965 18.1372 25.2317 18.1372 22.7551C18.1372 20.3567 18.1685 18.1731 18.231 16.2043C18.2466 15.6262 19.5513 15.259 22.145 15.1028C22.2075 14.8762 22.2075 14.6926 22.145 14.552C20.606 14.5988 18.5591 14.6223 16.0044 14.6223L11.0122 27.6535L6.20752 14.6223C4.30127 14.6223 2.61377 14.591 1.14502 14.5285C1.06689 14.6848 1.06689 14.8332 1.14502 14.9738C2.07471 15.1067 2.68018 15.302 2.96143 15.5598C3.25049 15.8098 3.40283 16.3918 3.41846 17.3059C3.47314 19.2278 3.50049 21.0442 3.50049 22.7551C3.50049 25.1223 3.44971 27.5285 3.34814 29.9739ZM2.86768 29.9739C2.96924 27.5129 3.02002 25.1067 3.02002 22.7551C3.02002 21.0442 2.99268 19.2278 2.93799 17.3059C2.92236 16.5871 2.78174 16.1262 2.51611 15.9231C2.2583 15.7121 1.6958 15.5481 0.828613 15.4309C0.609863 14.9543 0.617676 14.4856 0.852051 14.0246C2.64893 14.1028 4.98486 14.1418 7.85986 14.1418L11.7036 24.4074L15.6646 14.1418C17.7583 14.1418 20.0708 14.1106 22.6021 14.0481C22.7583 14.5559 22.7739 15.0598 22.6489 15.5598C20.9224 15.7317 20.0513 15.9621 20.0356 16.2512C19.9653 17.7199 19.9302 19.8879 19.9302 22.7551C19.9302 25.716 19.981 28.1653 20.0825 30.1028C20.0981 30.3918 20.9692 30.6223 22.6958 30.7942C22.8208 31.2942 22.8052 31.7981 22.6489 32.3059C20.1177 32.2434 18.645 32.2121 18.231 32.2121C17.606 32.2121 15.856 32.2434 12.981 32.3059C12.7856 31.759 12.7856 31.2551 12.981 30.7942C14.6763 30.6223 15.5317 30.3996 15.5474 30.1262C15.6255 28.2981 15.6646 26.1301 15.6646 23.6223C15.6646 21.6692 15.6567 20.2356 15.6411 19.3215L10.9067 31.9426H10.1216L5.01221 19.0637V23.6223C5.01221 25.427 5.05127 27.5442 5.12939 29.9739C5.14502 30.3957 6.00049 30.677 7.6958 30.8176C7.89111 31.2864 7.89111 31.7903 7.6958 32.3293C5.35986 32.2356 2.93408 32.2356 0.418457 32.3293C0.230957 31.7903 0.230957 31.2864 0.418457 30.8176C2.03564 30.6614 2.85205 30.3801 2.86768 29.9739Z" fill="white"/>
<path d="M43.0513 31.2746C42.6138 31.2512 42.188 31.2199 41.7739 31.1809C41.3677 31.134 40.9966 31.0715 40.6606 30.9934C40.3247 30.9153 40.0396 30.8137 39.8052 30.6887C39.5786 30.5559 39.4302 30.3918 39.3599 30.1965L32.8794 14.1887C32.7466 14.1965 32.6177 14.2512 32.4927 14.3528C32.438 15.3215 32.1411 16.0989 31.6021 16.6848L31.8716 17.3762L26.9263 29.8098C26.6138 30.591 25.6528 31.0793 24.0435 31.2746C23.9966 31.384 23.9731 31.4817 23.9731 31.5676C23.9731 31.6614 23.9966 31.7551 24.0435 31.8489C24.9341 31.8176 25.6489 31.7942 26.188 31.7785C26.7349 31.7629 27.1099 31.7551 27.313 31.7551C27.4927 31.7551 27.8989 31.7629 28.5317 31.7785C29.1724 31.7942 30.0396 31.8176 31.1333 31.8489C31.1802 31.7551 31.2036 31.6614 31.2036 31.5676C31.2036 31.4817 31.1802 31.384 31.1333 31.2746C30.4849 31.2121 29.9575 31.1457 29.5513 31.0754C29.145 30.9973 28.8286 30.9153 28.6021 30.8293C28.3755 30.7434 28.2231 30.6496 28.145 30.5481C28.0669 30.4387 28.0278 30.3176 28.0278 30.1848C28.0278 30.0989 28.0435 30.0129 28.0747 29.927L29.7856 25.6379C30.6528 25.6223 31.3521 25.6106 31.8833 25.6028C32.4224 25.5949 32.7935 25.591 32.9966 25.591C33.4419 25.591 33.8364 25.5949 34.1802 25.6028C34.5317 25.6028 34.8325 25.6067 35.0825 25.6145L36.7817 29.927C36.8208 30.0442 36.8403 30.134 36.8403 30.1965C36.8403 30.4074 36.731 30.5949 36.5122 30.759C36.3013 30.9231 36.0396 31.0364 35.7271 31.0989L34.4614 31.2746C34.4146 31.384 34.3911 31.4817 34.3911 31.5676C34.3911 31.6614 34.4146 31.7551 34.4614 31.8489C35.1255 31.8254 35.7974 31.8059 36.4771 31.7903C37.1646 31.7746 37.8677 31.7668 38.5864 31.7668C39.3052 31.7668 40.0317 31.7746 40.7661 31.7903C41.5083 31.8059 42.27 31.8254 43.0513 31.8489C43.106 31.7395 43.1333 31.6457 43.1333 31.5676C43.1333 31.5207 43.1255 31.4739 43.1099 31.427C43.0942 31.3801 43.0747 31.3293 43.0513 31.2746ZM32.9966 24.677C31.8638 24.677 30.9302 24.6614 30.1958 24.6301L32.4224 18.8879H32.4692L34.7075 24.6535C34.2856 24.6692 33.7153 24.677 32.9966 24.677ZM32.4458 20.1184L30.8872 24.1731C31.8325 24.2199 32.8716 24.2278 34.0044 24.1965L32.4458 20.1184ZM43.4146 30.841C43.6099 31.3098 43.6021 31.8059 43.3911 32.3293H34.0981C33.9106 31.7903 33.9106 31.2942 34.0981 30.841C34.9497 30.7942 35.5513 30.7082 35.9028 30.5832C36.2544 30.4504 36.3755 30.2395 36.2661 29.9504L34.731 26.0715C33.2856 26.0168 31.7388 26.0324 30.0903 26.1184L28.5786 29.9973C28.5317 30.1301 28.5669 30.2512 28.6841 30.3606C28.8091 30.4621 29.0083 30.5442 29.2817 30.6067C29.5552 30.6692 29.8755 30.7199 30.2427 30.759C30.6099 30.7981 31.0239 30.8254 31.4849 30.841C31.6802 31.3098 31.6724 31.8059 31.4614 32.3293C28.8989 32.2356 26.3169 32.2356 23.7153 32.3293C23.5044 31.8059 23.4966 31.3098 23.6919 30.841C25.3013 30.6535 26.2114 30.302 26.4224 29.7864L31.3677 17.3528C31.3364 17.2903 31.2739 17.1496 31.1802 16.9309C31.0942 16.7043 31.0435 16.5559 31.0278 16.4856C31.6372 15.8684 31.9731 15.0715 32.0356 14.0949C32.7231 13.759 33.5317 13.5676 34.4614 13.5207L41.0356 29.8332C41.1841 30.2004 41.4185 30.4465 41.7388 30.5715C42.0591 30.6887 42.6177 30.7785 43.4146 30.841Z" fill="white"/>
<path d="M50.0708 15.3371H50.0942C50.5786 15.3059 51.2036 15.2903 51.9692 15.2903C53.1567 15.2903 54.063 15.6574 54.688 16.3918C55.3208 17.1262 55.6372 18.0793 55.6372 19.2512C55.6372 20.4387 55.3481 21.4699 54.77 22.3449C54.1997 23.2121 53.3052 23.6457 52.0864 23.6457C51.3677 23.6457 50.6567 23.5559 49.9536 23.3762C49.9536 20.6262 49.9927 17.9465 50.0708 15.3371ZM55.1567 19.2512C55.1567 18.2434 54.8521 17.3957 54.2427 16.7082C53.6411 16.0207 52.8442 15.716 51.8521 15.7942C51.7896 18.802 51.7583 21.2121 51.7583 23.0246C51.9146 23.0715 52.1528 23.1106 52.4731 23.1418C53.3872 23.0403 54.063 22.6106 54.5005 21.8528C54.938 21.0949 55.1567 20.2278 55.1567 19.2512ZM47.8208 30.1496C47.8052 30.7278 46.8989 31.1028 45.1021 31.2746C45.0396 31.3996 45.0396 31.5832 45.1021 31.8254C46.4302 31.7785 47.7935 31.7551 49.1919 31.7551C50.856 31.7551 52.4536 31.7785 53.9849 31.8254C54.0474 31.7004 54.0474 31.5168 53.9849 31.2746C51.3911 31.1184 50.0864 30.7434 50.0708 30.1496C49.9927 27.9543 49.9536 25.9934 49.9536 24.2668C50.8364 24.4465 51.6528 24.5364 52.4028 24.5364C53.6841 26.9192 55.3716 29.3254 57.4653 31.7551C57.8638 31.7551 58.438 31.759 59.188 31.7668C59.9458 31.7746 60.6255 31.7824 61.2271 31.7903C61.8364 31.7981 62.4146 31.8098 62.9614 31.8254C63.0239 31.6848 63.0239 31.5012 62.9614 31.2746C61.6802 31.1809 60.5981 30.8684 59.7153 30.3371C58.8403 29.7981 57.8169 28.8059 56.645 27.3606C55.8481 26.3528 55.1294 25.2903 54.4888 24.1731C55.645 23.7903 56.5552 23.1535 57.2192 22.2629C57.8833 21.3723 58.2153 20.3684 58.2153 19.2512C58.2153 17.8449 57.7622 16.7082 56.856 15.841C55.9497 14.966 54.6958 14.5285 53.0942 14.5285C47.813 14.591 45.1567 14.591 45.1255 14.5285C45.0786 14.716 45.0786 14.8996 45.1255 15.0793C46.9224 15.2512 47.8286 15.6262 47.8442 16.2043C47.9224 18.0403 47.9614 20.2239 47.9614 22.7551C47.9614 25.2317 47.9146 27.6965 47.8208 30.1496ZM47.3403 30.1262C47.4341 28.1731 47.481 25.716 47.481 22.7551C47.481 20.2395 47.4419 18.0637 47.3638 16.2278C47.3481 15.9387 46.4771 15.7082 44.7505 15.5363C44.6177 15.0207 44.6333 14.5168 44.7974 14.0246C45.6567 14.0715 46.5903 14.0949 47.5981 14.0949C48.606 14.0949 49.7622 14.0871 51.0669 14.0715C52.3716 14.0559 53.3286 14.0481 53.938 14.0481C55.8286 14.0481 57.313 14.5285 58.3911 15.4895C59.4692 16.4426 60.0083 17.6965 60.0083 19.2512C60.0083 20.3528 59.6919 21.3684 59.0591 22.2981C58.4263 23.2278 57.5747 23.9309 56.5044 24.4074C57.0356 25.2746 57.6528 26.1653 58.356 27.0793C59.1841 28.1809 59.9966 29.0559 60.7935 29.7043C61.5981 30.3528 62.4888 30.7239 63.4653 30.8176C63.5903 31.3176 63.5747 31.8215 63.4185 32.3293C62.3013 32.2981 60.2466 32.2668 57.2544 32.2356C55.0591 29.6731 53.3442 27.2668 52.1099 25.0168H51.7583C51.7583 26.4699 51.7974 28.1731 51.8755 30.1262C51.8755 30.1731 51.895 30.2199 51.9341 30.2668C51.9731 30.3137 52.1255 30.3879 52.3911 30.4895C52.6567 30.591 53.0591 30.6809 53.5981 30.759C54.145 30.8293 54.4497 30.8723 54.5122 30.8879C54.645 31.3254 54.6216 31.8059 54.4419 32.3293C51.5591 32.2668 49.8091 32.2356 49.1919 32.2356C48.77 32.2356 47.2974 32.2668 44.7739 32.3293C44.5786 31.7903 44.5786 31.2864 44.7739 30.8176C46.4692 30.6457 47.3247 30.4153 47.3403 30.1262Z" fill="white"/>
<path d="M74.6685 30.1028C74.6841 30.3918 75.5552 30.6223 77.2817 30.7942C77.3911 31.2551 77.3755 31.7512 77.2349 32.2824C75.0864 32.2512 73.4692 32.2356 72.3833 32.2356C71.313 32.2356 69.7036 32.2512 67.5552 32.2824C67.3052 31.8215 67.3052 31.3254 67.5552 30.7942C69.2583 30.6223 70.1177 30.3996 70.1333 30.1262C70.2114 27.9621 70.2583 26.0246 70.2739 24.3137L65.9028 16.7082C65.52 16.0676 64.6177 15.677 63.1958 15.5363C63.1333 15.2942 63.1021 15.0598 63.1021 14.8332C63.1021 14.591 63.1489 14.3293 63.2427 14.0481C64.8911 14.1106 66.8325 14.1418 69.0669 14.1418C70.6841 14.1418 71.8794 14.1262 72.6528 14.0949C72.731 14.3606 72.77 14.591 72.77 14.7863C72.77 15.0129 72.731 15.2707 72.6528 15.5598C71.8169 15.6223 71.2388 15.6926 70.9185 15.7707C70.5981 15.8488 70.438 15.9699 70.438 16.134C70.438 16.1809 71.3911 17.9153 73.2974 21.3371C75.4224 17.8059 76.4849 16.0207 76.4849 15.9817C76.4849 15.9035 76.438 15.8332 76.3442 15.7707C76.2505 15.7082 76.1216 15.6574 75.9575 15.6184C75.8013 15.5793 75.6528 15.552 75.5122 15.5363C75.3794 15.5207 75.2231 15.5051 75.0435 15.4895C74.8716 15.466 74.77 15.4543 74.7388 15.4543C74.606 15.0403 74.6294 14.5715 74.8091 14.0481C76.2466 14.1106 77.3169 14.1418 78.02 14.1418C78.6763 14.1418 79.6294 14.1106 80.8794 14.0481C81.0591 14.5871 81.0591 15.0832 80.8794 15.5363C79.6763 15.6457 78.8833 16.0051 78.5005 16.6145L74.5396 22.966C74.5396 26.1379 74.5825 28.5168 74.6685 30.1028ZM70.6138 30.1496C70.5903 30.7278 69.6841 31.1028 67.895 31.2746C67.8169 31.4699 67.8169 31.6614 67.895 31.8489C71.3481 31.7864 74.3091 31.7785 76.7778 31.8254C76.8403 31.6692 76.8403 31.4778 76.7778 31.2512C74.1841 31.0949 72.8794 30.7278 72.8638 30.1496C72.7856 27.9074 72.7466 26.1692 72.7466 24.9348L78.1021 16.3684C78.563 15.6184 79.3755 15.1887 80.5396 15.0793C80.6099 14.9465 80.6099 14.7629 80.5396 14.5285C79.6646 14.5754 78.7778 14.5988 77.8794 14.5988C77.0669 14.5988 76.1567 14.5754 75.1489 14.5285C75.0786 14.6535 75.0786 14.8371 75.1489 15.0793C76.2974 15.2043 76.9106 15.4582 76.9888 15.841C77.02 15.9895 76.9731 16.1653 76.8481 16.3684L72.606 23.3762L68.7622 16.5207C68.4888 16.0051 68.5708 15.6653 69.0083 15.5012C69.4536 15.3293 70.5161 15.1887 72.1958 15.0793C72.2583 14.8528 72.2583 14.6692 72.1958 14.5285C69.8911 14.6379 67.0161 14.6379 63.5708 14.5285C63.5083 14.6692 63.5083 14.8528 63.5708 15.0793C64.9536 15.2043 65.8755 15.6848 66.3364 16.5207L70.7544 24.2199C70.7388 26.0559 70.6919 28.0324 70.6138 30.1496Z" fill="white"/>
<path d="M113.203 38.7849C111.539 40.8228 106.748 44.6495 100.193 46.5306C100.193 46.5306 101.856 42.063 106.549 39.0585C102.222 39.7901 95.7001 39.6856 86.7817 36.5766C86.7817 36.5766 95.0013 32.8928 104.352 33.8856C99.0611 31.3513 92.4389 26.3351 87.3475 15.9631C87.3475 15.9631 102.322 19.1766 109.776 29.1045C103.021 16.3027 113.404 0 113.404 0C121.49 14.291 119.76 23.7748 117.131 29C124.618 19.1504 139.46 15.9631 139.46 15.9631C134.368 26.3351 127.746 31.3513 122.455 33.8856C131.806 32.8928 140.026 36.5766 140.026 36.5766C131.107 39.6856 124.585 39.7901 120.259 39.0585C124.951 42.063 126.615 46.5306 126.615 46.5306C120.059 44.6495 114.867 40.8228 113.203 38.7849Z" fill="#4B1195"/>
<path d="M151.865 23.2653C151.865 21.3434 151.905 19.1598 151.983 16.7145C151.998 16.1208 153.303 15.7458 155.897 15.5895C155.944 15.4411 155.944 15.2575 155.897 15.0387C153.85 15.1012 152.252 15.1325 151.104 15.1325C150.143 15.1325 148.783 15.1012 147.026 15.0387C146.955 15.1794 146.955 15.363 147.026 15.5895C148.815 15.7614 149.717 16.1364 149.733 16.7145C149.811 18.5505 149.85 20.7341 149.85 23.2653V31.6208C149.85 33.8942 149.686 35.4841 149.358 36.3903C149.03 37.3044 148.346 37.7614 147.307 37.7614C146.557 37.7614 145.979 37.5583 145.572 37.152C145.174 36.7458 144.975 36.277 144.975 35.7458C144.975 35.3317 145.08 35.0036 145.291 34.7614C145.502 34.5192 145.752 34.3981 146.041 34.3981C146.307 34.3981 146.537 34.4958 146.733 34.6911C146.928 34.6442 147.057 34.5075 147.119 34.2809C146.83 33.8669 146.405 33.6598 145.842 33.6598C145.28 33.6598 144.826 33.8395 144.483 34.1989C144.139 34.5583 143.967 35.0583 143.967 35.6989C143.967 36.4489 144.26 37.1012 144.846 37.6559C145.432 38.2184 146.252 38.4997 147.307 38.4997C147.737 38.4997 148.127 38.4528 148.479 38.3591C148.83 38.2653 149.151 38.1091 149.44 37.8903C149.729 37.6794 149.983 37.4411 150.201 37.1755C150.42 36.9098 150.612 36.5466 150.776 36.0856C150.947 35.6325 151.092 35.1872 151.209 34.7497C151.326 34.3122 151.424 33.7497 151.502 33.0622C151.588 32.3747 151.655 31.7223 151.701 31.1051C151.748 30.488 151.783 29.7145 151.807 28.7848C151.83 27.8551 151.846 26.9958 151.854 26.2067C151.862 25.4176 151.865 24.4372 151.865 23.2653ZM147.6 38.9801C146.256 38.9801 145.24 38.6598 144.553 38.0192C143.858 37.3864 143.502 36.613 143.487 35.6989C143.471 34.8942 143.701 34.2692 144.178 33.8239C144.647 33.3786 145.194 33.1559 145.819 33.1559C146.412 33.1559 146.924 33.3551 147.354 33.7536C147.783 34.152 147.998 34.7028 147.998 35.4059C147.998 35.7106 147.951 35.9645 147.858 36.1676C147.764 36.3786 147.658 36.5426 147.541 36.6598C147.432 36.7848 147.369 36.8708 147.354 36.9176C147.416 37.0661 147.553 37.1716 147.764 37.2341C148.42 37.0934 148.85 36.5973 149.053 35.7458C149.264 34.8942 149.369 33.5192 149.369 31.6208V23.2653C149.369 20.7497 149.33 18.5739 149.252 16.738C149.237 16.4489 148.365 16.2184 146.639 16.0466C146.506 15.5309 146.522 15.027 146.686 14.5348C148.061 14.613 149.811 14.652 151.936 14.652C152.256 14.652 152.897 14.6442 153.858 14.6286C154.819 14.613 155.658 14.6051 156.377 14.6051C156.526 15.0505 156.533 15.5309 156.401 16.0466C154.674 16.2184 153.803 16.4489 153.787 16.738C153.694 18.6911 153.647 21.1559 153.647 24.1325C153.647 25.3981 153.631 26.5192 153.6 27.4958C153.569 28.4645 153.498 29.488 153.389 30.5661C153.287 31.6364 153.147 32.5622 152.967 33.3434C152.795 34.1325 152.557 34.8981 152.252 35.6403C151.947 36.3825 151.584 36.9841 151.162 37.445C150.74 37.9137 150.229 38.2848 149.627 38.5583C149.026 38.8395 148.35 38.9801 147.6 38.9801Z" fill="white"/>
<path d="M176.897 31.7848C176.459 31.7614 176.033 31.7301 175.619 31.6911C175.213 31.6442 174.842 31.5817 174.506 31.5036C174.17 31.4255 173.885 31.3239 173.651 31.1989C173.424 31.0661 173.276 30.902 173.205 30.7067L166.725 14.6989C166.592 14.7067 166.463 14.7614 166.338 14.863C166.283 15.8317 165.987 16.6091 165.447 17.195L165.717 17.8864L160.772 30.32C160.459 31.1012 159.498 31.5895 157.889 31.7848C157.842 31.8942 157.819 31.9919 157.819 32.0778C157.819 32.1716 157.842 32.2653 157.889 32.3591C158.78 32.3278 159.494 32.3044 160.033 32.2887C160.58 32.2731 160.955 32.2653 161.158 32.2653C161.338 32.2653 161.744 32.2731 162.377 32.2887C163.018 32.3044 163.885 32.3278 164.979 32.3591C165.026 32.2653 165.049 32.1716 165.049 32.0778C165.049 31.9919 165.026 31.8942 164.979 31.7848C164.33 31.7223 163.803 31.6559 163.397 31.5856C162.99 31.5075 162.674 31.4255 162.447 31.3395C162.221 31.2536 162.069 31.1598 161.99 31.0583C161.912 30.9489 161.873 30.8278 161.873 30.695C161.873 30.6091 161.889 30.5231 161.92 30.4372L163.631 26.1481C164.498 26.1325 165.197 26.1208 165.729 26.113C166.268 26.1051 166.639 26.1012 166.842 26.1012C167.287 26.1012 167.682 26.1051 168.026 26.113C168.377 26.113 168.678 26.1169 168.928 26.1247L170.627 30.4372C170.666 30.5544 170.686 30.6442 170.686 30.7067C170.686 30.9176 170.576 31.1051 170.358 31.2692C170.147 31.4333 169.885 31.5466 169.572 31.6091L168.307 31.7848C168.26 31.8942 168.237 31.9919 168.237 32.0778C168.237 32.1716 168.26 32.2653 168.307 32.3591C168.971 32.3356 169.643 32.3161 170.322 32.3005C171.01 32.2848 171.713 32.277 172.432 32.277C173.151 32.277 173.877 32.2848 174.612 32.3005C175.354 32.3161 176.115 32.3356 176.897 32.3591C176.951 32.2497 176.979 32.1559 176.979 32.0778C176.979 32.0309 176.971 31.9841 176.955 31.9372C176.94 31.8903 176.92 31.8395 176.897 31.7848ZM166.842 25.1872C165.709 25.1872 164.776 25.1716 164.041 25.1403L166.268 19.3981H166.315L168.553 25.1637C168.131 25.1794 167.561 25.1872 166.842 25.1872ZM166.291 20.6286L164.733 24.6833C165.678 24.7301 166.717 24.738 167.85 24.7067L166.291 20.6286ZM177.26 31.3512C177.455 31.82 177.447 32.3161 177.237 32.8395H167.944C167.756 32.3005 167.756 31.8044 167.944 31.3512C168.795 31.3044 169.397 31.2184 169.748 31.0934C170.1 30.9606 170.221 30.7497 170.112 30.4606L168.576 26.5817C167.131 26.527 165.584 26.5426 163.936 26.6286L162.424 30.5075C162.377 30.6403 162.412 30.7614 162.53 30.8708C162.655 30.9723 162.854 31.0544 163.127 31.1169C163.401 31.1794 163.721 31.2301 164.088 31.2692C164.455 31.3083 164.869 31.3356 165.33 31.3512C165.526 31.82 165.518 32.3161 165.307 32.8395C162.744 32.7458 160.162 32.7458 157.561 32.8395C157.35 32.3161 157.342 31.82 157.537 31.3512C159.147 31.1637 160.057 30.8122 160.268 30.2966L165.213 17.863C165.182 17.8005 165.119 17.6598 165.026 17.4411C164.94 17.2145 164.889 17.0661 164.873 16.9958C165.483 16.3786 165.819 15.5817 165.881 14.6051C166.569 14.2692 167.377 14.0778 168.307 14.0309L174.881 30.3434C175.03 30.7106 175.264 30.9567 175.584 31.0817C175.905 31.1989 176.463 31.2887 177.26 31.3512Z" fill="white"/>
<path d="M192.893 24.777V23.2419C192.893 21.4372 192.854 19.3161 192.776 16.8786C192.76 16.4645 191.905 16.1872 190.209 16.0466C190.1 15.7731 190.045 15.5231 190.045 15.2966C190.045 15.1559 190.1 14.9176 190.209 14.5817C191.397 14.6286 192.588 14.652 193.783 14.652C194.987 14.652 196.221 14.6286 197.487 14.5817C197.596 14.9176 197.651 15.1559 197.651 15.2966C197.651 15.5231 197.596 15.7731 197.487 16.0466C195.869 16.2028 195.053 16.4801 195.037 16.8786C194.936 18.527 194.885 20.9372 194.885 24.1091C194.885 27.6872 194.936 30.5817 195.037 32.7926L194.076 32.8161L182.955 19.2106C182.955 19.3512 182.951 19.6091 182.944 19.9841C182.936 20.3512 182.932 20.6364 182.932 20.8395C182.932 24.613 182.983 27.8278 183.084 30.4841C183.1 30.9059 183.955 31.1872 185.651 31.3278C185.76 31.6012 185.815 31.8512 185.815 32.0778C185.815 32.2497 185.76 32.5036 185.651 32.8395C184.447 32.7926 183.256 32.7692 182.076 32.7692C180.873 32.7692 179.639 32.7926 178.373 32.8395C178.264 32.5036 178.209 32.2497 178.209 32.0778C178.209 31.8512 178.264 31.6012 178.373 31.3278C179.99 31.1716 180.807 30.8903 180.822 30.4841C180.916 28.8434 180.963 26.4372 180.963 23.2653C180.963 20.8356 180.932 18.6676 180.869 16.7614C180.362 16.363 179.588 16.1247 178.549 16.0466C178.432 15.8356 178.373 15.5934 178.373 15.32C178.373 15.0309 178.447 14.7692 178.596 14.5348C180.229 14.613 182.291 14.652 184.783 14.652L192.893 24.777ZM194.405 24.1091C194.405 21.7419 194.455 19.3317 194.557 16.8786C194.588 16.1755 195.451 15.7458 197.147 15.5895C197.209 15.4567 197.209 15.2731 197.147 15.0387C195.67 15.0856 194.623 15.1091 194.006 15.1091C193.03 15.1091 191.916 15.0856 190.666 15.0387C190.604 15.2731 190.604 15.4567 190.666 15.5895C192.377 15.7458 193.24 16.1755 193.256 16.8786C193.334 19.3161 193.373 21.4372 193.373 23.2419C193.373 24.2966 193.358 25.7184 193.326 27.5075L183.225 15.1325C181.467 15.1325 180.01 15.1012 178.854 15.0387C178.791 15.2262 178.791 15.4098 178.854 15.5895C179.862 15.652 180.694 15.9723 181.35 16.5505C181.412 18.4489 181.444 20.6872 181.444 23.2653C181.444 25.6325 181.397 28.0387 181.303 30.4841C181.272 31.195 180.408 31.6286 178.713 31.7848C178.651 31.9098 178.651 32.0934 178.713 32.3356C180.182 32.2887 181.229 32.2653 181.854 32.2653C182.83 32.2653 183.944 32.2887 185.194 32.3356C185.256 32.0934 185.256 31.9098 185.194 31.7848C183.483 31.6286 182.619 31.195 182.604 30.4841C182.526 28.0544 182.487 25.9372 182.487 24.1325C182.487 22.07 182.51 20.027 182.557 18.0036H182.674L194.311 32.3356L194.533 32.3122C194.447 30.4762 194.405 27.7419 194.405 24.1091Z" fill="white"/>
<path d="M210.143 15.1325H204.248C203.272 15.1325 201.901 15.1012 200.135 15.0387V15.5895C201.932 15.7614 202.838 16.1364 202.854 16.7145C202.932 18.5505 202.971 20.7341 202.971 23.2653C202.971 25.7419 202.924 28.2067 202.83 30.6598C202.815 31.238 201.908 31.613 200.112 31.7848C200.08 32.0583 200.08 32.2419 200.112 32.3356C201.619 32.2887 205.123 32.2653 210.623 32.2653C212.545 32.2653 213.99 31.9372 214.959 31.2809C215.928 30.6247 216.803 29.4958 217.584 27.8942C217.522 27.7692 217.385 27.6676 217.174 27.5895C215.752 30.2301 213.131 31.5505 209.311 31.5505H205.08C205.002 28.1364 204.963 25.6403 204.963 24.0622L208.783 24.0387C209.119 24.0387 209.432 24.0934 209.721 24.2028C210.018 24.3122 210.252 24.4255 210.424 24.5426C210.604 24.652 210.811 24.8669 211.045 25.1872C211.28 25.5075 211.444 25.7419 211.537 25.8903C211.631 26.0309 211.795 26.3278 212.03 26.7809C212.264 27.2341 212.42 27.527 212.498 27.6598C212.74 27.5583 212.893 27.4528 212.955 27.3434C212.174 26.0153 211.783 24.7926 211.783 23.6755C211.783 23.1911 211.893 22.6012 212.112 21.9059C212.338 21.2106 212.619 20.5739 212.955 19.9958C212.893 19.8864 212.74 19.7848 212.498 19.6911C212.436 19.8005 212.311 20.0348 212.123 20.3942C211.944 20.7536 211.822 20.988 211.76 21.0973C211.705 21.1989 211.592 21.3903 211.42 21.6716C211.256 21.9528 211.127 22.1403 211.033 22.2341C210.94 22.3278 210.799 22.4684 210.612 22.6559C210.432 22.8356 210.256 22.9606 210.084 23.0309C209.92 23.0934 209.725 23.152 209.498 23.2067C209.272 23.2614 209.033 23.2887 208.783 23.2887C207.104 23.2887 205.83 23.2731 204.963 23.2419C204.963 21.3512 205.01 18.8864 205.104 15.8473H208.83C212.651 15.8473 215.272 17.1676 216.694 19.8083C216.905 19.7301 217.041 19.6247 217.104 19.4919C216.322 17.8981 215.447 16.7731 214.479 16.1169C213.51 15.4606 212.065 15.1325 210.143 15.1325ZM211.76 20.0778L212.264 19.0934C212.92 19.3278 213.334 19.6286 213.506 19.9958C213.155 20.6051 212.858 21.2653 212.615 21.9762C212.381 22.6794 212.264 23.2458 212.264 23.6755C212.264 24.7145 212.678 25.9372 213.506 27.3434C213.319 27.7419 212.92 28.0466 212.311 28.2575C212.022 27.7809 211.811 27.4137 211.678 27.1559C211.358 26.6247 211.104 26.2301 210.916 25.9723C210.737 25.7067 210.463 25.4411 210.096 25.1755C209.729 24.9098 209.322 24.7692 208.877 24.7536H206.768C206.768 26.4801 206.799 28.5856 206.862 31.07H209.287C211.272 31.07 212.885 30.6833 214.127 29.9098C215.377 29.1286 216.322 28.152 216.963 26.9801C217.619 27.2223 218.033 27.527 218.205 27.8942C217.182 29.5895 216.576 31.2067 216.389 32.7458H206.662C203.576 32.7458 201.283 32.7692 199.783 32.8161C199.619 32.3083 199.612 31.8122 199.76 31.3278C201.471 31.1559 202.334 30.9255 202.35 30.6364C202.444 28.1833 202.49 25.7262 202.49 23.2653C202.49 20.7497 202.451 18.5739 202.373 16.738C202.358 16.4489 201.487 16.2184 199.76 16.0466C199.612 15.4997 199.627 14.9958 199.807 14.5348C202.205 14.613 203.795 14.652 204.576 14.652H215.908C216.096 16.1833 216.705 17.7966 217.737 19.4919C217.557 19.8669 217.139 20.1716 216.483 20.4059C215.842 19.2419 214.897 18.2731 213.647 17.4997C212.405 16.7184 210.791 16.3278 208.807 16.3278H206.885C206.807 19.1325 206.768 21.2848 206.768 22.7848C207.26 22.8005 207.971 22.8083 208.901 22.8083C209.557 22.8083 210.08 22.5895 210.471 22.152C210.862 21.7067 211.291 21.0153 211.76 20.0778Z" fill="white"/>
</svg>
